<svg width="24" height="24" viewBox="0 0 24 24" fill="none" xmlns="http://www.w3.org/2000/svg">
<path d="M9.6 3H5.6C5.17565 3 4.76869 3.15804 4.46863 3.43934C4.16857 3.72064 4 4.10218 4 4.5V19.5C4 19.8978 4.16857 20.2794 4.46863 20.5607C4.76869 20.842 5.17565 21 5.6 21H9.6C10.0243 21 10.4313 20.842 10.7314 20.5607C11.0314 20.2794 11.2 19.8978 11.2 19.5V4.5C11.2 4.10218 11.0314 3.72064 10.7314 3.43934C10.4313 3.15804 10.0243 3 9.6 3ZM9.6 19.4C9.6 19.4552 9.55523 19.5 9.5 19.5H5.7C5.64477 19.5 5.6 19.4552 5.6 19.4V4.6C5.6 4.54477 5.64477 4.5 5.7 4.5H9.5C9.55523 4.5 9.6 4.54477 9.6 4.6V19.4ZM18.4 3H14.4C13.9757 3 13.5687 3.15804 13.2686 3.43934C12.9686 3.72064 12.8 4.10218 12.8 4.5V19.5C12.8 19.8978 12.9686 20.2794 13.2686 20.5607C13.5687 20.842 13.9757 21 14.4 21H18.4C18.8243 21 19.2313 20.842 19.5314 20.5607C19.8314 20.2794 20 19.8978 20 19.5V4.5C20 4.10218 19.8314 3.72064 19.5314 3.43934C19.2313 3.15804 18.8243 3 18.4 3ZM18.4 19.4C18.4 19.4552 18.3552 19.5 18.3 19.5H14.5C14.4448 19.5 14.4 19.4552 14.4 19.4V4.6C14.4 4.54477 14.4448 4.5 14.5 4.5H18.3C18.3552 4.5 18.4 4.54477 18.4 4.6V19.4Z" fill="#027DFC"/>
</svg>
