<svg width="3135" height="858" viewBox="0 0 3135 858" fill="none" xmlns="http://www.w3.org/2000/svg">
    <path fill-rule="evenodd" clip-rule="evenodd"
        d="M1295.03 16.3257C1291.46 17.0757 1285.69 18.8417 1282.23 20.2517C1278.76 21.6607 1273.13 24.8027 1269.73 27.2347C1266.32 29.6667 1261.42 33.9207 1258.83 36.6877C1256.25 39.4557 1252.6 44.1247 1250.73 47.0627C1248.87 50.0017 1246.19 55.3317 1244.78 58.9067C1243.37 62.4817 1241.68 68.9707 1241.03 73.3257C1240.38 77.6817 1240.15 83.7567 1240.52 86.8257C1240.89 89.8957 1241.66 94.4317 1242.23 96.9067C1242.8 99.3817 1244.99 105.007 1247.1 109.407C1249.21 113.807 1252.96 119.963 1255.44 123.087C1257.92 126.211 1262.69 131.045 1266.04 133.829C1269.38 136.613 1275.81 140.663 1280.33 142.83C1284.84 144.997 1291.21 147.25 1294.47 147.838C1297.73 148.426 1303.39 148.907 1307.04 148.907C1310.68 148.907 1316.34 148.429 1319.6 147.844C1322.87 147.259 1329.79 144.73 1334.99 142.224C1342.95 138.385 1345.79 136.306 1353.03 129.037C1359.86 122.177 1362.48 118.664 1365.8 111.907C1368.09 107.232 1370.7 100.257 1371.59 96.4067C1372.48 92.5567 1373.19 85.7757 1373.18 81.3367C1373.17 76.8987 1372.49 70.3737 1371.67 66.8367C1370.85 63.3007 1369.26 58.2657 1368.14 55.6497C1367.02 53.0337 1364.32 48.2677 1362.14 45.0587C1359.96 41.8507 1355 36.2857 1351.12 32.6927C1346.85 28.7377 1341.2 24.7557 1336.8 22.6017C1332.81 20.6457 1326.84 18.3297 1323.54 17.4557C1320.24 16.5817 1313.94 15.6637 1309.54 15.4147C1304.81 15.1477 1298.88 15.5197 1295.03 16.3257ZM1052.03 38.7607L1049.04 41.7527L1049.05 333.08C1049.06 590.177 1049.24 625.165 1050.58 630.854C1051.42 634.4 1053.55 640.247 1055.32 643.848C1057.22 647.705 1060.88 652.738 1064.23 656.096C1068.2 660.066 1072.45 663 1078.23 665.76C1082.8 667.941 1089.69 670.506 1093.54 671.462C1099.27 672.883 1106.66 673.277 1134.28 673.634L1168.03 674.069L1171.03 671.065L1174.04 668.061V380.572C1174.04 136.005 1173.82 91.9717 1172.61 85.6407C1171.83 81.5477 1169.87 75.3207 1168.25 71.8027C1166.64 68.2847 1163.34 62.7767 1160.94 59.5627C1158.53 56.3487 1153.87 51.6937 1150.57 49.2187C1147.28 46.7437 1142.8 43.8057 1140.61 42.6897C1138.42 41.5737 1134.14 39.7247 1131.08 38.5817C1125.93 36.6517 1123.02 36.4767 1090.28 36.1367L1055.02 35.7697L1052.03 38.7607ZM2235.04 166.488C2232.56 166.698 2226.49 167.354 2221.54 167.944C2216.59 168.535 2207.84 169.938 2202.11 171.062C2196.37 172.185 2186.96 174.43 2181.19 176.049C2175.43 177.668 2164.59 181.475 2157.12 184.509C2149.65 187.543 2138.82 192.517 2133.05 195.563C2127.28 198.61 2116.93 204.938 2110.05 209.627C2103.17 214.316 2093.9 221.232 2089.45 224.996C2085.01 228.76 2076.45 236.919 2070.44 243.128C2064.42 249.336 2056.75 258.031 2053.38 262.451C2050.02 266.87 2044.29 275.029 2040.65 280.581C2037.01 286.133 2031.43 295.79 2028.25 302.041C2025.07 308.292 2020.58 318.157 2018.28 323.963C2015.98 329.768 2012.5 340.081 2010.54 346.881C2008.59 353.68 2005.9 365.13 2004.57 372.325C2003.25 379.52 2001.65 392.954 2001.02 402.178C2000.17 414.591 2000.16 423.122 2000.98 435.005C2001.59 443.836 2003.22 457.214 2004.61 464.734C2005.99 472.254 2007.77 480.914 2008.56 483.979C2009.35 487.044 2012.05 495.594 2014.56 502.979C2017.07 510.364 2022.45 523.157 2026.52 531.407C2030.59 539.657 2037.02 551.132 2040.8 556.907C2044.59 562.682 2050.55 571.007 2054.05 575.407C2057.55 579.807 2063.14 586.481 2066.47 590.238C2069.81 593.996 2076.81 600.91 2082.04 605.603C2087.26 610.297 2095.65 617.228 2100.67 621.006C2105.7 624.784 2115.15 631.115 2121.67 635.075C2128.2 639.035 2137.68 644.211 2142.74 646.577C2147.8 648.943 2156.71 652.691 2162.53 654.905C2168.36 657.12 2179.06 660.49 2186.33 662.394C2193.59 664.298 2205.39 666.858 2212.54 668.083C2223.78 670.007 2229.26 670.313 2253.04 670.34C2274.98 670.366 2282.96 669.997 2292.54 668.514C2299.14 667.493 2310.41 665.179 2317.58 663.373C2324.76 661.568 2335.11 658.419 2340.58 656.376C2346.06 654.333 2354.81 650.671 2360.03 648.239C2366.15 645.387 2370.59 643.921 2372.53 644.112C2375.12 644.367 2375.58 644.856 2375.85 647.699C2376.03 649.509 2375.4 653.334 2374.45 656.199C2373.51 659.063 2371.25 664.684 2369.43 668.688C2367.61 672.693 2363.58 679.893 2360.46 684.688C2357.13 689.83 2350.85 697.319 2345.17 702.941C2339.87 708.185 2332.32 714.598 2328.4 717.192C2324.48 719.786 2317.73 723.674 2313.4 725.833C2309.07 727.991 2302.51 730.89 2298.82 732.274C2295.13 733.658 2287.03 735.927 2280.82 737.317C2274.61 738.706 2264.14 740.353 2257.54 740.977C2250.94 741.601 2241.49 741.825 2236.54 741.475C2231.59 741.125 2223.45 740.19 2218.45 739.398C2213.46 738.606 2205.29 736.626 2200.31 734.998C2195.33 733.37 2187.26 730.03 2182.37 727.576C2177.49 725.122 2169.9 720.433 2165.51 717.155C2161.13 713.877 2154.39 707.848 2150.54 703.758C2146.69 699.667 2141.16 693.545 2138.26 690.153C2134.42 685.664 2131.29 683.178 2126.76 681.016C2123.34 679.382 2115.96 677.114 2110.38 675.976C2101 674.066 2096.81 673.908 2055.88 673.922C2022.27 673.933 2010.93 674.241 2009.04 675.195C2007.28 676.08 2006.44 677.421 2006.22 679.726C2006.05 681.526 2007.11 686.691 2008.59 691.203C2010.07 695.715 2013.22 704.199 2015.6 710.056C2017.97 715.913 2022 724.865 2024.56 729.949C2027.11 735.033 2031.72 743.273 2034.81 748.26C2037.89 753.247 2043.82 761.845 2047.97 767.367C2052.13 772.889 2060.48 782.375 2066.53 788.447C2072.58 794.519 2081.38 802.472 2086.08 806.121C2090.78 809.77 2099.77 816.017 2106.05 820.004C2112.33 823.99 2122.43 829.6 2128.5 832.469C2134.57 835.339 2144.01 839.35 2149.47 841.382C2154.94 843.415 2166.19 846.797 2174.47 848.899C2182.76 851 2196.51 853.761 2205.04 855.035C2218.48 857.044 2224.32 857.349 2249.04 857.336C2273.58 857.324 2279.69 857.002 2293.04 855.018C2301.56 853.752 2314.51 851.194 2321.81 849.334C2329.11 847.474 2339.24 844.539 2344.31 842.811C2349.38 841.083 2359.39 836.87 2366.54 833.449C2373.69 830.027 2383.11 825.102 2387.48 822.503C2391.85 819.904 2400.4 814.039 2406.48 809.469C2412.56 804.899 2422.29 796.442 2428.11 790.676C2433.92 784.909 2441.56 776.662 2445.08 772.348C2448.61 768.035 2455.55 758.407 2460.51 750.954C2465.48 743.501 2472.45 732.01 2476.01 725.419C2479.58 718.828 2485.12 707.132 2488.34 699.427C2491.56 691.723 2495.91 680.203 2498.02 673.827C2500.13 667.451 2502.82 657.774 2504 652.321C2505.19 646.868 2506.79 637.907 2507.58 632.407C2508.73 624.278 2509 602.759 2509.02 517.407C2509.04 430.462 2509.3 410.773 2510.51 402.907C2511.31 397.682 2512.86 390.237 2513.95 386.364C2515.04 382.49 2517.5 375.603 2519.41 371.06C2521.33 366.516 2525.02 359.399 2527.61 355.242C2530.2 351.086 2534.92 344.41 2538.1 340.407C2541.28 336.403 2548.35 329.509 2553.81 325.086C2559.28 320.663 2565.64 314.891 2567.96 312.259C2570.27 309.628 2573.67 304.309 2575.5 300.441C2577.34 296.572 2579.34 291.022 2579.94 288.108C2580.54 285.193 2581.04 280.603 2581.04 277.907C2581.04 275.211 2580.54 270.621 2579.93 267.706C2579.32 264.792 2577.47 259.482 2575.8 255.907C2573.37 250.682 2570.4 247.047 2560.66 237.372C2553.99 230.753 2543.36 221.444 2537.04 216.685C2530.71 211.926 2522.86 206.429 2519.6 204.47C2515.29 201.886 2512.49 200.907 2509.43 200.907C2505.83 200.907 2503.46 202.064 2493.37 208.756C2486.86 213.074 2477.49 219.775 2472.54 223.649C2467.59 227.523 2460.16 233.948 2456.04 237.927C2451.91 241.906 2447.53 245.829 2446.29 246.645C2444.88 247.582 2443.07 247.882 2441.4 247.461C2439.94 247.095 2433.52 241.754 2427.14 235.592C2420.76 229.431 2411.71 221.42 2407.04 217.792C2402.36 214.163 2394.4 208.477 2389.34 205.156C2384.28 201.835 2374.83 196.411 2368.34 193.103C2361.85 189.794 2351.96 185.266 2346.37 183.04C2340.79 180.815 2332.24 177.851 2327.37 176.456C2322.51 175.06 2314.41 173.02 2309.38 171.923C2304.34 170.826 2295.34 169.236 2289.38 168.389C2283.41 167.543 2269.76 166.682 2259.04 166.478C2248.31 166.274 2237.51 166.278 2235.04 166.488ZM1672.04 169.532C1670.11 169.762 1662.36 170.858 1654.82 171.966C1647.27 173.075 1635.57 175.503 1628.82 177.36C1622.06 179.218 1612.04 182.365 1606.54 184.353C1601.04 186.342 1590.69 190.804 1583.54 194.269C1576.39 197.734 1566.35 203.164 1561.23 206.335C1556.11 209.507 1547.33 215.507 1541.73 219.67C1536.12 223.833 1525.53 233.127 1518.19 240.323C1510.84 247.519 1501.54 257.496 1497.51 262.493C1493.48 267.491 1486.7 276.917 1482.45 283.441C1478.2 289.965 1471.41 302.123 1467.37 310.46C1463.33 318.797 1457.98 331.809 1455.49 339.376C1453 346.943 1450.05 357.021 1448.94 361.771C1447.82 366.521 1445.96 376.257 1444.8 383.407C1442.74 396.091 1442.68 399.712 1442.31 532.181L1441.93 667.956L1444.91 670.931L1447.88 673.907L1479.21 673.903C1502.17 673.9 1512.99 673.501 1519.72 672.409C1524.78 671.589 1531.81 669.868 1535.35 668.584C1538.88 667.3 1543.97 664.964 1546.66 663.391C1549.34 661.819 1553.82 658.249 1556.61 655.457C1559.65 652.425 1563.18 647.366 1565.38 642.894C1567.45 638.675 1569.71 631.986 1570.55 627.569C1571.8 620.952 1572.04 603.664 1572.04 516.569C1572.05 429.841 1572.29 411.817 1573.55 403.424C1574.38 397.934 1576.22 389.609 1577.65 384.924C1579.07 380.24 1581.96 372.807 1584.07 368.407C1586.18 364.007 1590.29 356.807 1593.19 352.407C1596.1 348.007 1602.06 340.67 1606.45 336.102C1610.83 331.535 1617.75 325.293 1621.81 322.231C1625.88 319.169 1633.33 314.496 1638.37 311.846C1643.41 309.195 1651.6 305.666 1656.58 304.003C1661.55 302.34 1669.87 300.238 1675.08 299.332C1682.26 298.081 1688.15 297.811 1699.54 298.21C1711.45 298.628 1716.46 299.269 1723.89 301.331C1729.04 302.758 1736.69 305.295 1740.89 306.97C1745.1 308.644 1751.69 311.864 1755.54 314.125C1759.39 316.387 1765.8 320.681 1769.8 323.669C1773.79 326.657 1779.64 331.645 1782.8 334.754C1785.95 337.863 1790.61 343.107 1793.15 346.407C1795.68 349.707 1799.66 355.506 1801.97 359.295C1804.29 363.083 1807.27 368.646 1808.6 371.656C1809.94 374.667 1812.04 380.117 1813.28 383.768L1815.53 390.407L1816.06 508.407C1816.54 617.073 1816.72 626.882 1818.34 632.407C1819.31 635.707 1821.24 640.769 1822.64 643.657C1824.04 646.544 1827.4 651.338 1830.12 654.31C1832.84 657.282 1837.2 661.09 1839.82 662.771C1842.44 664.452 1847.62 666.97 1851.33 668.367C1855.04 669.763 1862.23 671.579 1867.31 672.402C1874.09 673.502 1884.84 673.9 1907.86 673.903L1939.19 673.907L1942.11 670.984L1945.04 668.061L1945.03 527.734C1945.03 391.687 1944.96 387.041 1943.01 375.407C1941.9 368.807 1939.62 358.242 1937.94 351.928C1936.26 345.615 1932.84 335.04 1930.34 328.428C1927.84 321.817 1923.17 311.232 1919.96 304.907C1916.75 298.582 1910.69 288.232 1906.5 281.907C1902.3 275.582 1895.57 266.357 1891.55 261.407C1887.52 256.457 1878.9 247.221 1872.38 240.883C1865.87 234.545 1856.6 226.31 1851.79 222.584C1846.98 218.858 1838.07 212.646 1831.98 208.78C1825.88 204.915 1814.2 198.468 1806 194.454C1797.8 190.441 1784.9 185.093 1777.32 182.572C1769.74 180.05 1758.81 176.865 1753.04 175.493C1747.26 174.121 1737.81 172.254 1732.04 171.344C1725.12 170.254 1713.69 169.592 1698.54 169.402C1685.89 169.244 1673.96 169.303 1672.04 169.532ZM2860.04 169.481C2858.66 169.712 2853.49 170.393 2848.54 170.994C2843.59 171.595 2834.14 173.205 2827.54 174.573C2820.94 175.941 2808.79 179.307 2800.54 182.053C2792.29 184.799 2779.24 190.122 2771.54 193.881C2763.84 197.641 2753.71 203.06 2749.04 205.922C2744.36 208.785 2735.55 214.869 2729.46 219.442C2723.37 224.016 2713.73 232.179 2708.05 237.583C2702.36 242.986 2693.91 251.907 2689.28 257.407C2684.64 262.907 2677.11 273.032 2672.54 279.907C2667.97 286.782 2661.52 297.582 2658.22 303.907C2654.92 310.232 2650.19 320.582 2647.72 326.907C2645.25 333.232 2641.86 343.132 2640.19 348.907C2638.52 354.682 2636.22 363.997 2635.08 369.606C2633.95 375.216 2632.3 386.241 2631.42 394.106C2630.24 404.641 2629.97 413.542 2630.37 427.907C2630.67 438.632 2631.61 452.044 2632.46 457.711C2633.31 463.377 2635.16 473.182 2636.58 479.499C2637.99 485.815 2640.73 495.741 2642.65 501.557C2644.58 507.373 2648.4 517.369 2651.15 523.769C2653.89 530.17 2659.09 540.582 2662.7 546.907C2666.3 553.232 2672.44 562.888 2676.34 568.366C2680.24 573.843 2687.44 582.976 2692.35 588.661C2697.26 594.346 2705.83 603.101 2711.4 608.117C2716.98 613.133 2725.65 620.3 2730.68 624.044C2735.71 627.787 2744.04 633.418 2749.18 636.558C2754.33 639.697 2764.84 645.284 2772.54 648.975C2780.24 652.665 2791.23 657.33 2796.97 659.341C2802.71 661.352 2812.61 664.301 2818.97 665.896C2825.33 667.491 2833.27 669.275 2836.6 669.862C2839.94 670.448 2848.94 671.594 2856.6 672.407C2864.27 673.22 2875.84 673.89 2882.31 673.896C2888.79 673.902 2900.67 673.216 2908.72 672.371C2916.76 671.526 2928.67 669.711 2935.17 668.338C2941.68 666.965 2951.39 664.534 2956.77 662.937C2962.14 661.34 2971.71 657.956 2978.04 655.417C2984.36 652.878 2994.26 648.29 3000.04 645.221C3005.81 642.153 3014.81 636.889 3020.03 633.525C3025.26 630.16 3034.03 623.841 3039.53 619.483C3045.04 615.125 3054.52 606.575 3060.61 600.483C3066.69 594.391 3075.13 585.043 3079.36 579.71C3083.58 574.376 3090.19 565.176 3094.04 559.264C3097.89 553.352 3103.93 542.641 3107.47 535.461C3111.01 528.281 3115.51 518.111 3117.46 512.86C3119.42 507.609 3122.35 498.834 3123.98 493.36C3125.6 487.886 3127.86 478.837 3128.98 473.252C3130.11 467.667 3131.71 457.092 3132.53 449.752C3133.35 442.412 3134.02 429.429 3134.03 420.901C3134.03 412.373 3133.36 399.61 3132.53 392.54C3131.71 385.469 3130.11 375.122 3128.98 369.546C3127.85 363.969 3125.56 354.682 3123.89 348.907C3122.22 343.132 3118.82 333.232 3116.33 326.907C3113.85 320.582 3109.4 310.667 3106.45 304.873C3103.5 299.079 3097.42 288.729 3092.93 281.873C3088.45 275.017 3081.07 264.907 3076.54 259.407C3072 253.907 3063.62 244.907 3057.91 239.407C3052.21 233.907 3044.39 226.861 3040.54 223.748C3036.69 220.636 3028.47 214.705 3022.28 210.568C3016.09 206.432 3005.28 200.128 2998.26 196.559C2991.25 192.991 2981.91 188.644 2977.52 186.899C2973.13 185.154 2966.16 182.623 2962.04 181.274C2957.91 179.925 2950.23 177.728 2944.97 176.392C2939.7 175.057 2929.8 173.003 2922.97 171.829C2913.21 170.153 2905.38 169.626 2886.54 169.377C2873.34 169.203 2861.41 169.249 2860.04 169.481ZM1251.39 193.899C1250.21 194.374 1248.53 195.796 1247.64 197.058C1246.18 199.149 1246.04 220.075 1246.04 433.706V668.061L1248.96 670.984L1251.88 673.907H1306.04H1360.19L1363.11 670.984L1366.04 668.061V433.407V198.753L1363.11 195.83L1360.19 192.907L1306.86 192.97C1277.53 193.005 1252.57 193.423 1251.39 193.899ZM2277.87 298.31C2281.91 299.193 2288.65 301.07 2292.85 302.479C2297.04 303.888 2304.5 307.12 2309.42 309.66C2314.34 312.201 2322 316.971 2326.45 320.261C2330.9 323.55 2337.04 328.794 2340.1 331.914C2343.17 335.034 2347.7 340.246 2350.19 343.497C2352.67 346.747 2356.56 352.557 2358.82 356.407C2361.08 360.257 2364.36 366.759 2366.1 370.856C2367.83 374.954 2370.31 382.465 2371.6 387.548C2372.89 392.632 2374.5 401.582 2375.18 407.439C2376.16 415.857 2376.16 420.385 2375.2 429.065C2374.52 435.104 2373.29 442.977 2372.46 446.561C2371.63 450.145 2369.64 456.671 2368.04 461.064C2366.44 465.456 2363.11 472.835 2360.65 477.461C2358.19 482.086 2353.71 489.142 2350.7 493.139C2347.69 497.136 2341.92 503.596 2337.88 507.494C2333.84 511.392 2327.76 516.612 2324.38 519.095C2320.99 521.578 2314.2 525.687 2309.28 528.225C2304.37 530.764 2296.34 534.185 2291.44 535.826C2286.54 537.468 2278.53 539.508 2273.65 540.359C2268.77 541.21 2259.54 541.905 2253.15 541.903C2246.76 541.901 2237.46 541.238 2232.48 540.43C2227.5 539.623 2219.85 537.773 2215.48 536.32C2211.11 534.867 2203.53 531.703 2198.64 529.289C2193.75 526.875 2186.12 522.314 2181.69 519.153C2177.26 515.993 2170.15 509.914 2165.89 505.645C2161.63 501.376 2155.43 493.824 2152.11 488.862C2148.79 483.9 2144.52 476.593 2142.62 472.624C2140.72 468.655 2138.05 462.032 2136.68 457.907C2135.31 453.782 2133.45 446.807 2132.55 442.407C2131.64 438.007 2130.65 429.862 2130.33 424.306C2130 418.536 2130.27 410.068 2130.97 404.555C2131.63 399.247 2133.29 390.758 2134.65 385.691C2136 380.623 2139.12 372.231 2141.58 367.042C2144.04 361.852 2148.62 353.737 2151.77 349.007C2154.92 344.277 2161.35 336.542 2166.08 331.817C2171.15 326.745 2179.08 320.31 2185.44 316.105C2192.14 311.682 2200.08 307.494 2206.38 305.054C2211.97 302.893 2219.54 300.389 2223.2 299.49C2226.87 298.592 2232.49 297.444 2235.7 296.939C2238.91 296.435 2248.06 296.175 2256.04 296.363C2264.31 296.557 2273.68 297.392 2277.87 298.31ZM2892.18 298.953C2897.88 299.529 2906.59 300.936 2911.54 302.08C2916.49 303.224 2923.91 305.491 2928.02 307.118C2932.14 308.745 2938.38 311.682 2941.89 313.644C2945.4 315.607 2951.71 319.773 2955.91 322.902C2960.1 326.03 2967.14 332.374 2971.55 336.998C2975.96 341.623 2981.67 348.568 2984.23 352.432C2986.79 356.295 2990.74 363.27 2993 367.932C2995.26 372.593 2998.2 380.007 2999.54 384.407C3000.88 388.807 3002.66 396.403 3003.5 401.288C3004.35 406.173 3005.04 414.802 3005.04 420.466C3005.04 426.129 3004.55 434.232 3003.96 438.473C3003.37 442.713 3001.77 450.058 3000.4 454.795C2999.03 459.532 2995.93 467.601 2993.5 472.727C2991.08 477.853 2987.09 485.053 2984.64 488.727C2982.19 492.401 2977.57 498.415 2974.36 502.092C2971.16 505.769 2964.95 511.746 2960.57 515.374C2956.19 519.002 2949.21 523.96 2945.06 526.391C2940.92 528.823 2934.5 532.181 2930.81 533.854C2927.12 535.527 2920.38 537.972 2915.82 539.288C2911.26 540.603 2903.37 542.245 2898.28 542.937C2892.54 543.716 2884.17 543.981 2876.28 543.633C2866.79 543.216 2860.54 542.304 2851.81 540.064C2845.36 538.41 2835.88 535.068 2830.76 532.638C2825.63 530.208 2818.75 526.515 2815.48 524.43C2812.21 522.346 2805.99 517.663 2801.66 514.024C2797.33 510.384 2790.9 503.807 2787.35 499.407C2783.81 495.007 2778.71 487.776 2776.02 483.338C2773.33 478.9 2769.71 471.738 2767.98 467.423C2766.25 463.108 2763.69 455.264 2762.29 449.992C2760.04 441.563 2759.72 438.296 2759.64 422.907C2759.57 411.577 2760.03 402.939 2760.93 398.407C2761.69 394.557 2763.4 388.032 2764.73 383.907C2766.05 379.782 2769.11 372.318 2771.53 367.321C2773.94 362.324 2778.71 354.478 2782.11 349.886C2785.52 345.294 2790.38 339.31 2792.92 336.589C2795.46 333.868 2801.14 328.847 2805.54 325.431C2809.94 322.015 2816.69 317.368 2820.54 315.104C2824.39 312.841 2830.81 309.64 2834.82 307.991C2838.83 306.342 2845.35 304.098 2849.32 303.005C2853.29 301.912 2860.14 300.544 2864.54 299.965C2868.94 299.386 2874.11 298.758 2876.04 298.569C2877.96 298.381 2880.05 298.155 2880.68 298.067C2881.31 297.979 2886.48 298.378 2892.18 298.953Z"
        fill="#0154BC" />
    <path
        d="M172.036 1.39774C166.261 2.09874 157.711 3.44671 153.036 4.39371C148.361 5.34071 139.136 7.87974 132.536 10.0357C125.936 12.1917 114.686 16.8637 107.536 20.4197C100.386 23.9757 90.274 29.9267 85.065 33.6457C79.855 37.3637 70.459 45.3567 64.183 51.4067C57.908 57.4567 49.944 66.0247 46.486 70.4457C43.028 74.8677 37.953 82.1067 35.207 86.5337C32.462 90.9607 27.702 99.5937 24.63 105.719C21.559 111.844 17.309 121.479 15.186 127.131C13.063 132.783 9.92398 142.807 8.20898 149.407C6.49498 156.007 4.07598 166.807 2.83398 173.407L0.575989 185.407L0.288025 426.716L0 668.025L2.94104 670.966L5.88202 673.907H63.036H120.19L123.113 670.984L126.036 668.061V595.952C126.036 536.946 126.286 523.258 127.413 520.625C128.17 518.855 130.083 516.213 131.663 514.754C133.243 513.294 141.672 507.107 150.394 501.004C162.888 492.261 166.96 489.907 169.588 489.907C171.646 489.907 173.876 490.769 175.406 492.157C176.772 493.394 205.4 530.182 239.026 573.907C272.651 617.632 303.172 657.232 306.849 661.907C310.721 666.828 315.01 671.143 317.036 672.155C320.268 673.77 325.897 673.904 390.563 673.905C453.614 673.907 460.822 673.745 462.913 672.28C464.748 670.995 465.113 670.044 464.653 667.743C464.31 666.029 444.632 639.184 416.804 602.468C390.806 568.168 352.211 517.231 331.036 489.273C309.861 461.316 285.449 429.063 276.786 417.599C263.042 399.411 261.036 396.285 261.036 393.054C261.036 391.018 261.803 388.239 262.74 386.88C263.677 385.52 268.541 379.457 273.547 373.407C278.554 367.357 288.96 354.757 296.672 345.407C304.383 336.057 334.17 299.911 362.864 265.082C391.558 230.253 415.328 200.59 415.687 199.163C416.183 197.184 415.802 196.136 414.076 194.738C411.935 193.004 408.29 192.907 345.574 192.907C299.042 192.907 278.373 193.242 276.104 194.033C273.773 194.846 267.244 201.601 252.668 218.283C241.556 231.001 217.618 258.507 199.473 279.407L171.189 311.987L150.792 335.482C142.162 345.423 133.86 354.122 132.343 354.813C129.881 355.935 129.396 355.834 127.811 353.877C126.147 351.822 126.037 347.099 126.056 278.046C126.068 234.186 126.482 201.576 127.08 197.407C127.632 193.557 128.812 187.482 129.703 183.907C130.593 180.332 132.75 174.016 134.495 169.872C136.241 165.728 139.529 159.599 141.802 156.252C144.075 152.905 148.074 148.027 150.69 145.411C153.305 142.796 157.716 139.15 160.491 137.31C163.266 135.469 168.239 132.867 171.543 131.526C174.847 130.185 181.147 128.365 185.543 127.48C189.939 126.596 194.499 125.38 195.676 124.78C196.852 124.179 198.315 122.591 198.926 121.25C199.698 119.555 200.036 101.588 200.036 62.2827V5.75272L197.113 2.82968C194.514 0.231683 193.543 -0.0813198 188.363 0.0146802C185.158 0.0746802 177.811 0.696737 172.036 1.39774Z"
        fill="#CD2E3A" />
    <path fill-rule="evenodd" clip-rule="evenodd"
        d="M718.036 170.445C711.711 171.24 702.936 172.621 698.536 173.515C694.136 174.408 685.115 176.624 678.49 178.44C671.865 180.255 662.19 183.392 656.99 185.411C651.79 187.43 641.686 191.944 634.536 195.441C627.386 198.939 616.586 205.024 610.536 208.964C604.486 212.904 595.472 219.388 590.504 223.373C585.537 227.359 577.494 234.386 572.631 238.989C567.768 243.592 560.002 251.87 555.373 257.383C550.744 262.896 543.218 273.032 538.647 279.907C534.077 286.782 528.508 295.782 526.272 299.907C524.036 304.032 520.166 312.027 517.671 317.674C515.177 323.32 511.11 334.139 508.634 341.714C506.158 349.289 502.97 361.229 501.549 368.247C500.128 375.265 498.311 387.172 497.511 394.707C496.712 402.242 496.057 414.257 496.057 421.407C496.057 428.557 496.709 440.544 497.505 448.044C498.301 455.545 499.897 466.345 501.052 472.044C502.206 477.744 503.833 484.882 504.667 487.907C505.5 490.932 507.336 497.007 508.747 501.407C510.157 505.807 512.873 513.232 514.782 517.907C516.691 522.582 520.965 531.744 524.28 538.268C527.595 544.791 533.451 554.916 537.294 560.768C541.136 566.619 547.585 575.534 551.625 580.577C555.666 585.621 563.148 593.975 568.254 599.142C573.359 604.31 581.644 611.936 586.665 616.09C591.687 620.244 601.137 627.212 607.665 631.573C614.194 635.934 624.936 642.253 631.536 645.614C638.136 648.976 648.142 653.561 653.772 655.803C659.402 658.045 668.627 661.252 674.272 662.929C679.917 664.607 687.269 666.613 690.609 667.387C693.949 668.162 700.924 669.474 706.109 670.303C711.294 671.131 721.611 672.344 729.036 672.998C736.955 673.695 748.53 673.933 757.036 673.574C765.011 673.236 775.361 672.479 780.036 671.89C784.711 671.301 793.968 669.727 800.608 668.393C807.247 667.059 817.628 664.416 823.676 662.52C829.724 660.624 838.439 657.62 843.042 655.844C847.646 654.069 856.936 649.796 863.685 646.35C870.435 642.904 879.913 637.507 884.747 634.358C889.581 631.209 898.036 625.214 903.536 621.037C909.036 616.859 919.401 607.583 926.569 600.424C933.737 593.265 943.494 582.232 948.25 575.907C953.007 569.582 959.421 560.375 962.503 555.447C965.586 550.519 970.541 541.519 973.515 535.447C976.489 529.375 980.512 520.44 982.454 515.592C984.397 510.744 987.55 501.519 989.461 495.092C991.371 488.665 993.841 478.907 994.949 473.407C996.058 467.907 997.651 457.557 998.491 450.407C999.331 443.257 1000.02 430.204 1000.03 421.401C1000.03 412.598 999.359 399.61 998.532 392.54C997.705 385.469 996.107 375.122 994.981 369.546C993.855 363.969 991.582 354.682 989.932 348.907C988.281 343.132 984.871 333.232 982.355 326.907C979.838 320.582 975.775 311.405 973.325 306.513C970.875 301.621 965.924 292.851 962.323 287.025C958.721 281.198 954.609 274.85 953.185 272.919C951.761 270.987 946.935 264.907 942.462 259.407C937.989 253.907 929.115 244.396 922.742 238.272C916.37 232.148 906.872 223.917 901.635 219.981C896.398 216.045 887.77 210.095 882.462 206.758C877.153 203.422 866.449 197.616 858.673 193.855C850.898 190.095 839.811 185.394 834.036 183.409C828.261 181.425 818.586 178.481 812.536 176.868C806.486 175.255 795.686 172.988 788.536 171.83C778.832 170.259 769.705 169.633 752.536 169.362C736.451 169.109 726.078 169.434 718.036 170.445ZM786.294 304.359C782.037 302.97 774.5 301.209 769.545 300.448C764.59 299.686 757.161 298.864 753.036 298.623C748.911 298.381 743.736 298.352 741.536 298.558C739.336 298.764 733.261 299.583 728.036 300.377C722.811 301.171 714.936 302.983 710.536 304.404C706.136 305.824 698.408 309.019 693.362 311.503C688.316 313.988 681.116 318.184 677.362 320.828C673.608 323.472 667.279 328.658 663.299 332.353C659.319 336.047 653.382 342.627 650.106 346.975C646.829 351.323 642.56 357.722 640.618 361.194C638.676 364.666 635.698 370.86 634 374.957C632.302 379.055 629.796 386.907 628.432 392.407C626.811 398.943 625.747 406.736 625.361 414.907C625.007 422.375 625.239 430.917 625.936 436.127C626.577 440.923 627.963 448.212 629.015 452.325C630.067 456.438 632.321 463.283 634.024 467.536C635.727 471.789 639.325 478.9 642.019 483.338C644.713 487.776 649.831 495.032 653.392 499.463C656.953 503.894 662.267 509.559 665.201 512.053C668.135 514.546 673.461 518.731 677.036 521.352C680.611 523.974 688.486 528.528 694.536 531.473C700.586 534.418 708.911 537.755 713.036 538.889C717.161 540.022 724.586 541.613 729.536 542.424C734.486 543.235 743.036 543.899 748.536 543.899C754.036 543.899 762.799 543.208 768.009 542.363C773.218 541.518 781.5 539.48 786.413 537.834C791.325 536.188 799.367 532.764 804.283 530.225C809.198 527.687 815.991 523.574 819.378 521.087C822.765 518.6 827.946 514.505 830.891 511.986C833.835 509.468 839.148 503.807 842.696 499.407C846.244 495.007 851.11 488.191 853.508 484.259C855.906 480.328 859.48 473.447 861.45 468.967C863.419 464.487 865.904 457.487 866.972 453.411C868.039 449.335 869.454 442.301 870.115 437.78C870.866 432.644 871.104 424.28 870.75 415.484C870.337 405.241 869.509 398.797 867.709 391.822C866.348 386.55 863.821 378.706 862.093 374.391C860.365 370.076 856.747 362.914 854.053 358.476C851.359 354.038 846.196 346.725 842.58 342.226C838.964 337.726 832.525 331.238 828.271 327.807C824.017 324.376 817.465 319.577 813.712 317.142C809.959 314.707 803.996 311.403 800.461 309.8C796.926 308.198 790.551 305.749 786.294 304.359Z"
        fill="#CD2E3A" />
</svg>